<?xml version="1.0" encoding="UTF-8"?>
<svg width="1920" height="1080" viewBox="0 0 1920 1080" xmlns="http://www.w3.org/2000/svg">
  <defs>
    <linearGradient id="bg-gradient" x1="0%" y1="0%" x2="100%" y2="100%">
      <stop offset="0%" stop-color="#4361ee" stop-opacity="0.8"/>
      <stop offset="100%" stop-color="#7209b7" stop-opacity="0.9"/>
    </linearGradient>
    <radialGradient id="circle-gradient" cx="50%" cy="50%" r="50%" fx="50%" fy="50%">
      <stop offset="0%" stop-color="#4cc9f0" stop-opacity="0.3"/>
      <stop offset="100%" stop-color="#4cc9f0" stop-opacity="0"/>
    </radialGradient>
  </defs>
  
  <!-- 背景 -->
  <rect width="100%" height="100%" fill="url(#bg-gradient)"/>
  
  <!-- 装饰性圆形 -->
  <circle cx="200" cy="200" r="400" fill="url(#circle-gradient)"/>
  <circle cx="1800" cy="900" r="300" fill="url(#circle-gradient)"/>
  
  <!-- 装饰性几何图形 -->
  <path d="M0,300 L600,0 L1200,200 L1800,0 L1920,300 L1920,0 L0,0 Z" fill="#4361ee" opacity="0.1"/>
  <path d="M0,800 L600,1000 L1200,800 L1800,1000 L1920,800 L1920,1080 L0,1080 Z" fill="#7209b7" opacity="0.1"/>
  
  <!-- 网格效果 -->
  <g opacity="0.07">
    <path d="M0,100 L1920,100" stroke="#fff" stroke-width="1"/>
    <path d="M0,300 L1920,300" stroke="#fff" stroke-width="1"/>
    <path d="M0,500 L1920,500" stroke="#fff" stroke-width="1"/>
    <path d="M0,700 L1920,700" stroke="#fff" stroke-width="1"/>
    <path d="M0,900 L1920,900" stroke="#fff" stroke-width="1"/>
    
    <path d="M100,0 L100,1080" stroke="#fff" stroke-width="1"/>
    <path d="M500,0 L500,1080" stroke="#fff" stroke-width="1"/>
    <path d="M900,0 L900,1080" stroke="#fff" stroke-width="1"/>
    <path d="M1300,0 L1300,1080" stroke="#fff" stroke-width="1"/>
    <path d="M1700,0 L1700,1080" stroke="#fff" stroke-width="1"/>
  </g>
  
  <!-- 点状装饰 -->
  <g opacity="0.2">
    <circle cx="200" cy="400" r="3" fill="#fff"/>
    <circle cx="300" cy="700" r="2" fill="#fff"/>
    <circle cx="500" cy="200" r="4" fill="#fff"/>
    <circle cx="700" cy="500" r="3" fill="#fff"/>
    <circle cx="900" cy="300" r="2" fill="#fff"/>
    <circle cx="1100" cy="600" r="4" fill="#fff"/>
    <circle cx="1300" cy="400" r="3" fill="#fff"/>
    <circle cx="1500" cy="700" r="2" fill="#fff"/>
    <circle cx="1700" cy="200" r="4" fill="#fff"/>
  </g>
</svg> 